#usda 1.0
(
    defaultPrim = "food_can_001"
    kilogramsPerUnit = 1
    metersPerUnit = 1
    upAxis = "Z"
)

def Xform "food_can_001" (
    prepend apiSchemas = ["PhysicsRigidBodyAPI", "PhysicsMassAPI", "SemanticsLabelsAPI:class", "MaterialBindingAPI"]
    kind = "component"
)
{
    rel material:binding:physics = </food_can_001/physics_materials/surface>
    point3f physics:centerOfMass = (-2.7999014e-19, -1.1574593e-18, 0.05)
    float3 physics:diagonalInertia = (0.00018379, 0.00038272835, 0.00038272835)
    bool physics:kinematicEnabled = 0
    float physics:mass = 0.349
    quatf physics:principalAxes = (0.5, 0.5, 0.5, -0.5)
    bool physics:rigidBodyEnabled = 1
    token[] semantics:labels:class = ["food_can"]

    def "physics_materials"
    {
        def Material "surface" (
            prepend apiSchemas = ["PhysicsMaterialAPI"]
        )
        {
            float physics:dynamicFriction = 0.4
            float physics:restitution = 0.06
            float physics:staticFriction = 0.5
        }
    }

    def Scope "colliders"
    {
        def Mesh "body" (
            prepend apiSchemas = ["PhysicsCollisionAPI", "PhysicsMeshCollisionAPI", "MaterialBindingAPI"]
        )
        {
            float3[] extent = [(-0.0325, -0.0325, 0), (0.0325, 0.0325, 0.1)]
            int[] faceVertexCounts = [48, 48, 4, 4, 4, 4, 4, 4, 4, 4, 4, 4, 4, 4, 4, 4, 4, 4, 4, 4, 4, 4, 4, 4, 4, 4, 4, 4, 4, 4, 4, 4, 4, 4, 4, 4, 4, 4, 4, 4, 4, 4, 4, 4, 4, 4, 4, 4, 4, 4]
            int[] faceVertexIndices = [47, 46, 45, 44, 43, 42, 41, 40, 39, 38, 37, 36, 35, 34, 33, 32, 31, 30, 29, 28, 27, 26, 25, 24, 23, 22, 21, 20, 19, 18, 17, 16, 15, 14, 13, 12, 11, 10, 9, 8, 7, 6, 5, 4, 3, 2, 1, 0, 48, 49, 50, 51, 52, 53, 54, 55, 56, 57, 58, 59, 60, 61, 62, 63, 64, 65, 66, 67, 68, 69, 70, 71, 72, 73, 74, 75, 76, 77, 78, 79, 80, 81, 82, 83, 84, 85, 86, 87, 88, 89, 90, 91, 92, 93, 94, 95, 0, 1, 49, 48, 1, 2, 50, 49, 2, 3, 51, 50, 3, 4, 52, 51, 4, 5, 53, 52, 5, 6, 54, 53, 6, 7, 55, 54, 7, 8, 56, 55, 8, 9, 57, 56, 9, 10, 58, 57, 10, 11, 59, 58, 11, 12, 60, 59, 12, 13, 61, 60, 13, 14, 62, 61, 14, 15, 63, 62, 15, 16, 64, 63, 16, 17, 65, 64, 17, 18, 66, 65, 18, 19, 67, 66, 19, 20, 68, 67, 20, 21, 69, 68, 21, 22, 70, 69, 22, 23, 71, 70, 23, 24, 72, 71, 24, 25, 73, 72, 25, 26, 74, 73, 26, 27, 75, 74, 27, 28, 76, 75, 28, 29, 77, 76, 29, 30, 78, 77, 30, 31, 79, 78, 31, 32, 80, 79, 32, 33, 81, 80, 33, 34, 82, 81, 34, 35, 83, 82, 35, 36, 84, 83, 36, 37, 85, 84, 37, 38, 86, 85, 38, 39, 87, 86, 39, 40, 88, 87, 40, 41, 89, 88, 41, 42, 90, 89, 42, 43, 91, 90, 43, 44, 92, 91, 44, 45, 93, 92, 45, 46, 94, 93, 46, 47, 95, 94, 47, 0, 48, 95]
            rel material:binding:physics = </food_can_001/physics_materials/surface>
            uniform token physics:approximation = "convexHull"
            bool physics:collisionEnabled = 1
            point3f[] points = [(0.0325, 0, 0), (0.032221958, 0.004242101, 0), (0.03139259, 0.008411619, 0), (0.030026086, 0.012437211, 0), (0.028145825, 0.01625, 0), (0.025783984, 0.019784747, 0), (0.022980971, 0.022980971, 0), (0.019784747, 0.025783984, 0), (0.01625, 0.028145825, 0), (0.012437211, 0.030026086, 0), (0.008411619, 0.03139259, 0), (0.004242101, 0.032221958, 0), (1.990051e-18, 0.0325, 0), (-0.004242101, 0.032221958, 0), (-0.008411619, 0.03139259, 0), (-0.012437211, 0.030026086, 0), (-0.01625, 0.028145825, 0), (-0.019784747, 0.025783984, 0), (-0.022980971, 0.022980971, 0), (-0.025783984, 0.019784747, 0), (-0.028145825, 0.01625, 0), (-0.030026086, 0.012437211, 0), (-0.03139259, 0.008411619, 0), (-0.032221958, 0.004242101, 0), (-0.0325, 3.980102e-18, 0), (-0.032221958, -0.004242101, 0), (-0.03139259, -0.008411619, 0), (-0.030026086, -0.012437211, 0), (-0.028145825, -0.01625, 0), (-0.025783984, -0.019784747, 0), (-0.022980971, -0.022980971, 0), (-0.019784747, -0.025783984, 0), (-0.01625, -0.028145825, 0), (-0.012437211, -0.030026086, 0), (-0.008411619, -0.03139259, 0), (-0.004242101, -0.032221958, 0), (-5.9701533e-18, -0.0325, 0), (0.004242101, -0.032221958, 0), (0.008411619, -0.03139259, 0), (0.012437211, -0.030026086, 0), (0.01625, -0.028145825, 0), (0.019784747, -0.025783984, 0), (0.022980971, -0.022980971, 0), (0.025783984, -0.019784747, 0), (0.028145825, -0.01625, 0), (0.030026086, -0.012437211, 0), (0.03139259, -0.008411619, 0), (0.032221958, -0.004242101, 0), (0.0325, 0, 0.1), (0.032221958, 0.004242101, 0.1), (0.03139259, 0.008411619, 0.1), (0.030026086, 0.012437211, 0.1), (0.028145825, 0.01625, 0.1), (0.025783984, 0.019784747, 0.1), (0.022980971, 0.022980971, 0.1), (0.019784747, 0.025783984, 0.1), (0.01625, 0.028145825, 0.1), (0.012437211, 0.030026086, 0.1), (0.008411619, 0.03139259, 0.1), (0.004242101, 0.032221958, 0.1), (1.990051e-18, 0.0325, 0.1), (-0.004242101, 0.032221958, 0.1), (-0.008411619, 0.03139259, 0.1), (-0.012437211, 0.030026086, 0.1), (-0.01625, 0.028145825, 0.1), (-0.019784747, 0.025783984, 0.1), (-0.022980971, 0.022980971, 0.1), (-0.025783984, 0.019784747, 0.1), (-0.028145825, 0.01625, 0.1), (-0.030026086, 0.012437211, 0.1), (-0.03139259, 0.008411619, 0.1), (-0.032221958, 0.004242101, 0.1), (-0.0325, 3.980102e-18, 0.1), (-0.032221958, -0.004242101, 0.1), (-0.03139259, -0.008411619, 0.1), (-0.030026086, -0.012437211, 0.1), (-0.028145825, -0.01625, 0.1), (-0.025783984, -0.019784747, 0.1), (-0.022980971, -0.022980971, 0.1), (-0.019784747, -0.025783984, 0.1), (-0.01625, -0.028145825, 0.1), (-0.012437211, -0.030026086, 0.1), (-0.008411619, -0.03139259, 0.1), (-0.004242101, -0.032221958, 0.1), (-5.9701533e-18, -0.0325, 0.1), (0.004242101, -0.032221958, 0.1), (0.008411619, -0.03139259, 0.1), (0.012437211, -0.030026086, 0.1), (0.01625, -0.028145825, 0.1), (0.019784747, -0.025783984, 0.1), (0.022980971, -0.022980971, 0.1), (0.025783984, -0.019784747, 0.1), (0.028145825, -0.01625, 0.1), (0.030026086, -0.012437211, 0.1), (0.03139259, -0.008411619, 0.1), (0.032221958, -0.004242101, 0.1)]
            uniform token purpose = "guide"
            uniform token subdivisionScheme = "none"
            token visibility = "invisible"
        }
    }
}

