#usda 1.0
(
    defaultPrim = "cell_phone_001"
    kilogramsPerUnit = 1
    metersPerUnit = 1
    upAxis = "Z"
)

def Xform "cell_phone_001" (
    prepend apiSchemas = ["PhysicsRigidBodyAPI", "PhysicsMassAPI", "SemanticsLabelsAPI:class", "MaterialBindingAPI"]
    kind = "component"
)
{
    rel material:binding:physics = </cell_phone_001/physics_materials/surface>
    point3f physics:centerOfMass = (-0.00031822344, 0.00081422774, 0.0059943814)
    float3 physics:diagonalInertia = (0.00008574497, 0.0003589526, 0.00044209743)
    bool physics:kinematicEnabled = 0
    float physics:mass = 0.187
    quatf physics:principalAxes = (0.0019216831, 0.7033673, 0.71082383, 0.0004575687)
    bool physics:rigidBodyEnabled = 1
    token[] semantics:labels:class = ["cell_phone"]

    def "physics_materials"
    {
        def Material "surface" (
            prepend apiSchemas = ["PhysicsMaterialAPI"]
        )
        {
            float physics:dynamicFriction = 0.3
            float physics:restitution = 0.04
            float physics:staticFriction = 0.4
        }
    }

    def Scope "colliders"
    {
        def Mesh "body" (
            prepend apiSchemas = ["PhysicsCollisionAPI", "PhysicsMeshCollisionAPI", "MaterialBindingAPI"]
        )
        {
            float3[] extent = [(-0.037, -0.076, 0.0016), (0.037, 0.076, 0.01055)]
            int[] faceVertexCounts = [36, 36, 4, 4, 4, 4, 4, 4, 4, 4, 4, 4, 4, 4, 4, 4, 4, 4, 4, 4, 4, 4, 4, 4, 4, 4, 4, 4, 4, 4, 4, 4, 4, 4, 4, 4, 4, 4]
            int[] faceVertexIndices = [35, 34, 33, 32, 31, 30, 29, 28, 27, 26, 25, 24, 23, 22, 21, 20, 19, 18, 17, 16, 15, 14, 13, 12, 11, 10, 9, 8, 7, 6, 5, 4, 3, 2, 1, 0, 36, 37, 38, 39, 40, 41, 42, 43, 44, 45, 46, 47, 48, 49, 50, 51, 52, 53, 54, 55, 56, 57, 58, 59, 60, 61, 62, 63, 64, 65, 66, 67, 68, 69, 70, 71, 0, 1, 37, 36, 1, 2, 38, 37, 2, 3, 39, 38, 3, 4, 40, 39, 4, 5, 41, 40, 5, 6, 42, 41, 6, 7, 43, 42, 7, 8, 44, 43, 8, 9, 45, 44, 9, 10, 46, 45, 10, 11, 47, 46, 11, 12, 48, 47, 12, 13, 49, 48, 13, 14, 50, 49, 14, 15, 51, 50, 15, 16, 52, 51, 16, 17, 53, 52, 17, 18, 54, 53, 18, 19, 55, 54, 19, 20, 56, 55, 20, 21, 57, 56, 21, 22, 58, 57, 22, 23, 59, 58, 23, 24, 60, 59, 24, 25, 61, 60, 25, 26, 62, 61, 26, 27, 63, 62, 27, 28, 64, 63, 28, 29, 65, 64, 29, 30, 66, 65, 30, 31, 67, 66, 31, 32, 68, 67, 32, 33, 69, 68, 33, 34, 70, 69, 34, 35, 71, 70, 35, 0, 36, 71]
            rel material:binding:physics = </cell_phone_001/physics_materials/surface>
            uniform token physics:approximation = "convexHull"
            bool physics:collisionEnabled = 1
            point3f[] points = [(0.037, 0.067, 0.0016), (0.03682707, 0.06875581, 0.0016), (0.036314916, 0.07044415, 0.0016), (0.035483226, 0.07200013, 0.0016), (0.034363963, 0.07336396, 0.0016), (0.033000134, 0.07448322, 0.0016), (0.03144415, 0.07531492, 0.0016), (0.029755812, 0.07582707, 0.0016), (0.028, 0.076, 0.0016), (-0.028, 0.076, 0.0016), (-0.029755812, 0.07582707, 0.0016), (-0.03144415, 0.07531492, 0.0016), (-0.033000134, 0.07448322, 0.0016), (-0.034363963, 0.07336396, 0.0016), (-0.035483226, 0.07200013, 0.0016), (-0.036314916, 0.07044415, 0.0016), (-0.03682707, 0.06875581, 0.0016), (-0.037, 0.067, 0.0016), (-0.037, -0.067, 0.0016), (-0.03682707, -0.06875581, 0.0016), (-0.036314916, -0.07044415, 0.0016), (-0.035483226, -0.07200013, 0.0016), (-0.034363963, -0.07336396, 0.0016), (-0.033000134, -0.07448322, 0.0016), (-0.03144415, -0.07531492, 0.0016), (-0.029755812, -0.07582707, 0.0016), (-0.028, -0.076, 0.0016), (0.028, -0.076, 0.0016), (0.029755812, -0.07582707, 0.0016), (0.03144415, -0.07531492, 0.0016), (0.033000134, -0.07448322, 0.0016), (0.034363963, -0.07336396, 0.0016), (0.035483226, -0.07200013, 0.0016), (0.036314916, -0.07044415, 0.0016), (0.03682707, -0.06875581, 0.0016), (0.037, -0.067, 0.0016), (0.037, 0.067, 0.01055), (0.03682707, 0.06875581, 0.01055), (0.036314916, 0.07044415, 0.01055), (0.035483226, 0.07200013, 0.01055), (0.034363963, 0.07336396, 0.01055), (0.033000134, 0.07448322, 0.01055), (0.03144415, 0.07531492, 0.01055), (0.029755812, 0.07582707, 0.01055), (0.028, 0.076, 0.01055), (-0.028, 0.076, 0.01055), (-0.029755812, 0.07582707, 0.01055), (-0.03144415, 0.07531492, 0.01055), (-0.033000134, 0.07448322, 0.01055), (-0.034363963, 0.07336396, 0.01055), (-0.035483226, 0.07200013, 0.01055), (-0.036314916, 0.07044415, 0.01055), (-0.03682707, 0.06875581, 0.01055), (-0.037, 0.067, 0.01055), (-0.037, -0.067, 0.01055), (-0.03682707, -0.06875581, 0.01055), (-0.036314916, -0.07044415, 0.01055), (-0.035483226, -0.07200013, 0.01055), (-0.034363963, -0.07336396, 0.01055), (-0.033000134, -0.07448322, 0.01055), (-0.03144415, -0.07531492, 0.01055), (-0.029755812, -0.07582707, 0.01055), (-0.028, -0.076, 0.01055), (0.028, -0.076, 0.01055), (0.029755812, -0.07582707, 0.01055), (0.03144415, -0.07531492, 0.01055), (0.033000134, -0.07448322, 0.01055), (0.034363963, -0.07336396, 0.01055), (0.035483226, -0.07200013, 0.01055), (0.036314916, -0.07044415, 0.01055), (0.03682707, -0.06875581, 0.01055), (0.037, -0.067, 0.01055)]
            uniform token purpose = "guide"
            uniform token subdivisionScheme = "none"
            token visibility = "invisible"
        }

        def Mesh "camera_island" (
            prepend apiSchemas = ["PhysicsCollisionAPI", "PhysicsMeshCollisionAPI", "MaterialBindingAPI"]
        )
        {
            float3[] extent = [(-0.0335, 0.0305, 0.00045), (-0.0045, 0.0695, 0.0018)]
            int[] faceVertexCounts = [36, 36, 4, 4, 4, 4, 4, 4, 4, 4, 4, 4, 4, 4, 4, 4, 4, 4, 4, 4, 4, 4, 4, 4, 4, 4, 4, 4, 4, 4, 4, 4, 4, 4, 4, 4, 4, 4]
            int[] faceVertexIndices = [35, 34, 33, 32, 31, 30, 29, 28, 27, 26, 25, 24, 23, 22, 21, 20, 19, 18, 17, 16, 15, 14, 13, 12, 11, 10, 9, 8, 7, 6, 5, 4, 3, 2, 1, 0, 36, 37, 38, 39, 40, 41, 42, 43, 44, 45, 46, 47, 48, 49, 50, 51, 52, 53, 54, 55, 56, 57, 58, 59, 60, 61, 62, 63, 64, 65, 66, 67, 68, 69, 70, 71, 0, 1, 37, 36, 1, 2, 38, 37, 2, 3, 39, 38, 3, 4, 40, 39, 4, 5, 41, 40, 5, 6, 42, 41, 6, 7, 43, 42, 7, 8, 44, 43, 8, 9, 45, 44, 9, 10, 46, 45, 10, 11, 47, 46, 11, 12, 48, 47, 12, 13, 49, 48, 13, 14, 50, 49, 14, 15, 51, 50, 15, 16, 52, 51, 16, 17, 53, 52, 17, 18, 54, 53, 18, 19, 55, 54, 19, 20, 56, 55, 20, 21, 57, 56, 21, 22, 58, 57, 22, 23, 59, 58, 23, 24, 60, 59, 24, 25, 61, 60, 25, 26, 62, 61, 26, 27, 63, 62, 27, 28, 64, 63, 28, 29, 65, 64, 29, 30, 66, 65, 30, 31, 67, 66, 31, 32, 68, 67, 32, 33, 69, 68, 33, 34, 70, 69, 34, 35, 71, 70, 35, 0, 36, 71]
            rel material:binding:physics = </cell_phone_001/physics_materials/surface>
            uniform token physics:approximation = "convexHull"
            bool physics:collisionEnabled = 1
            point3f[] points = [(-0.0045, 0.0625, 0.00045), (-0.004634503, 0.06386563, 0.00045), (-0.0050328434, 0.06517878, 0.00045), (-0.0056797126, 0.066388994, 0.00045), (-0.0065502524, 0.06744975, 0.00045), (-0.0076110084, 0.06832029, 0.00045), (-0.008821216, 0.068967156, 0.00045), (-0.010134368, 0.069365494, 0.00045), (-0.0115, 0.0695, 0.00045), (-0.0265, 0.0695, 0.00045), (-0.027865632, 0.069365494, 0.00045), (-0.029178783, 0.068967156, 0.00045), (-0.030388992, 0.06832029, 0.00045), (-0.031449746, 0.06744975, 0.00045), (-0.032320287, 0.066388994, 0.00045), (-0.032967158, 0.06517878, 0.00045), (-0.033365496, 0.06386563, 0.00045), (-0.0335, 0.0625, 0.00045), (-0.0335, 0.0375, 0.00045), (-0.033365496, 0.036134366, 0.00045), (-0.032967158, 0.034821216, 0.00045), (-0.032320287, 0.033611007, 0.00045), (-0.031449746, 0.032550253, 0.00045), (-0.030388992, 0.031679712, 0.00045), (-0.029178783, 0.031032844, 0.00045), (-0.027865632, 0.030634504, 0.00045), (-0.0265, 0.0305, 0.00045), (-0.0115, 0.0305, 0.00045), (-0.010134368, 0.030634504, 0.00045), (-0.008821216, 0.031032844, 0.00045), (-0.0076110084, 0.031679712, 0.00045), (-0.0065502524, 0.032550253, 0.00045), (-0.0056797126, 0.033611007, 0.00045), (-0.0050328434, 0.034821216, 0.00045), (-0.004634503, 0.036134366, 0.00045), (-0.0045, 0.0375, 0.00045), (-0.0045, 0.0625, 0.0018), (-0.004634503, 0.06386563, 0.0018), (-0.0050328434, 0.06517878, 0.0018), (-0.0056797126, 0.066388994, 0.0018), (-0.0065502524, 0.06744975, 0.0018), (-0.0076110084, 0.06832029, 0.0018), (-0.008821216, 0.068967156, 0.0018), (-0.010134368, 0.069365494, 0.0018), (-0.0115, 0.0695, 0.0018), (-0.0265, 0.0695, 0.0018), (-0.027865632, 0.069365494, 0.0018), (-0.029178783, 0.068967156, 0.0018), (-0.030388992, 0.06832029, 0.0018), (-0.031449746, 0.06744975, 0.0018), (-0.032320287, 0.066388994, 0.0018), (-0.032967158, 0.06517878, 0.0018), (-0.033365496, 0.06386563, 0.0018), (-0.0335, 0.0625, 0.0018), (-0.0335, 0.0375, 0.0018), (-0.033365496, 0.036134366, 0.0018), (-0.032967158, 0.034821216, 0.0018), (-0.032320287, 0.033611007, 0.0018), (-0.031449746, 0.032550253, 0.0018), (-0.030388992, 0.031679712, 0.0018), (-0.029178783, 0.031032844, 0.0018), (-0.027865632, 0.030634504, 0.0018), (-0.0265, 0.0305, 0.0018), (-0.0115, 0.0305, 0.0018), (-0.010134368, 0.030634504, 0.0018), (-0.008821216, 0.031032844, 0.0018), (-0.0076110084, 0.031679712, 0.0018), (-0.0065502524, 0.032550253, 0.0018), (-0.0056797126, 0.033611007, 0.0018), (-0.0050328434, 0.034821216, 0.0018), (-0.004634503, 0.036134366, 0.0018), (-0.0045, 0.0375, 0.0018)]
            uniform token purpose = "guide"
            uniform token subdivisionScheme = "none"
            token visibility = "invisible"
        }

        def Mesh "camera_rim_0" (
            prepend apiSchemas = ["PhysicsCollisionAPI", "PhysicsMeshCollisionAPI", "MaterialBindingAPI"]
        )
        {
            float3[] extent = [(-0.0283, 0.0347, 0), (-0.0157, 0.0473, 0.00065)]
            int[] faceVertexCounts = [32, 32, 4, 4, 4, 4, 4, 4, 4, 4, 4, 4, 4, 4, 4, 4, 4, 4, 4, 4, 4, 4, 4, 4, 4, 4, 4, 4, 4, 4, 4, 4, 4, 4]
            int[] faceVertexIndices = [31, 30, 29, 28, 27, 26, 25, 24, 23, 22, 21, 20, 19, 18, 17, 16, 15, 14, 13, 12, 11, 10, 9, 8, 7, 6, 5, 4, 3, 2, 1, 0, 32, 33, 34, 35, 36, 37, 38, 39, 40, 41, 42, 43, 44, 45, 46, 47, 48, 49, 50, 51, 52, 53, 54, 55, 56, 57, 58, 59, 60, 61, 62, 63, 0, 1, 33, 32, 1, 2, 34, 33, 2, 3, 35, 34, 3, 4, 36, 35, 4, 5, 37, 36, 5, 6, 38, 37, 6, 7, 39, 38, 7, 8, 40, 39, 8, 9, 41, 40, 9, 10, 42, 41, 10, 11, 43, 42, 11, 12, 44, 43, 12, 13, 45, 44, 13, 14, 46, 45, 14, 15, 47, 46, 15, 16, 48, 47, 16, 17, 49, 48, 17, 18, 50, 49, 18, 19, 51, 50, 19, 20, 52, 51, 20, 21, 53, 52, 21, 22, 54, 53, 22, 23, 55, 54, 23, 24, 56, 55, 24, 25, 57, 56, 25, 26, 58, 57, 26, 27, 59, 58, 27, 28, 60, 59, 28, 29, 61, 60, 29, 30, 62, 61, 30, 31, 63, 62, 31, 0, 32, 63]
            rel material:binding:physics = </cell_phone_001/physics_materials/surface>
            uniform token physics:approximation = "convexHull"
            bool physics:collisionEnabled = 1
            point3f[] points = [(-0.0157, 0.041, 0), (-0.015821053, 0.042229068, 0), (-0.01617956, 0.043410905, 0), (-0.01676174, 0.044500094, 0), (-0.017545227, 0.045454774, 0), (-0.018499907, 0.04623826, 0), (-0.019589094, 0.04682044, 0), (-0.020770932, 0.047178946, 0), (-0.022, 0.0473, 0), (-0.023229068, 0.047178946, 0), (-0.024410905, 0.04682044, 0), (-0.025500093, 0.04623826, 0), (-0.026454773, 0.045454774, 0), (-0.02723826, 0.044500094, 0), (-0.027820442, 0.043410905, 0), (-0.028178947, 0.042229068, 0), (-0.0283, 0.041, 0), (-0.028178947, 0.03977093, 0), (-0.027820442, 0.038589094, 0), (-0.02723826, 0.03749991, 0), (-0.026454773, 0.03654523, 0), (-0.025500093, 0.03576174, 0), (-0.024410905, 0.03517956, 0), (-0.023229068, 0.034821052, 0), (-0.022, 0.0347, 0), (-0.020770932, 0.034821052, 0), (-0.019589094, 0.03517956, 0), (-0.018499907, 0.03576174, 0), (-0.017545227, 0.03654523, 0), (-0.01676174, 0.03749991, 0), (-0.01617956, 0.038589094, 0), (-0.015821053, 0.03977093, 0), (-0.0157, 0.041, 0.00065), (-0.015821053, 0.042229068, 0.00065), (-0.01617956, 0.043410905, 0.00065), (-0.01676174, 0.044500094, 0.00065), (-0.017545227, 0.045454774, 0.00065), (-0.018499907, 0.04623826, 0.00065), (-0.019589094, 0.04682044, 0.00065), (-0.020770932, 0.047178946, 0.00065), (-0.022, 0.0473, 0.00065), (-0.023229068, 0.047178946, 0.00065), (-0.024410905, 0.04682044, 0.00065), (-0.025500093, 0.04623826, 0.00065), (-0.026454773, 0.045454774, 0.00065), (-0.02723826, 0.044500094, 0.00065), (-0.027820442, 0.043410905, 0.00065), (-0.028178947, 0.042229068, 0.00065), (-0.0283, 0.041, 0.00065), (-0.028178947, 0.03977093, 0.00065), (-0.027820442, 0.038589094, 0.00065), (-0.02723826, 0.03749991, 0.00065), (-0.026454773, 0.03654523, 0.00065), (-0.025500093, 0.03576174, 0.00065), (-0.024410905, 0.03517956, 0.00065), (-0.023229068, 0.034821052, 0.00065), (-0.022, 0.0347, 0.00065), (-0.020770932, 0.034821052, 0.00065), (-0.019589094, 0.03517956, 0.00065), (-0.018499907, 0.03576174, 0.00065), (-0.017545227, 0.03654523, 0.00065), (-0.01676174, 0.03749991, 0.00065), (-0.01617956, 0.038589094, 0.00065), (-0.015821053, 0.03977093, 0.00065)]
            uniform token purpose = "guide"
            uniform token subdivisionScheme = "none"
            token visibility = "invisible"
        }

        def Mesh "camera_rim_1" (
            prepend apiSchemas = ["PhysicsCollisionAPI", "PhysicsMeshCollisionAPI", "MaterialBindingAPI"]
        )
        {
            float3[] extent = [(-0.0283, 0.0527, 0), (-0.0157, 0.0653, 0.00065)]
            int[] faceVertexCounts = [32, 32, 4, 4, 4, 4, 4, 4, 4, 4, 4, 4, 4, 4, 4, 4, 4, 4, 4, 4, 4, 4, 4, 4, 4, 4, 4, 4, 4, 4, 4, 4, 4, 4]
            int[] faceVertexIndices = [31, 30, 29, 28, 27, 26, 25, 24, 23, 22, 21, 20, 19, 18, 17, 16, 15, 14, 13, 12, 11, 10, 9, 8, 7, 6, 5, 4, 3, 2, 1, 0, 32, 33, 34, 35, 36, 37, 38, 39, 40, 41, 42, 43, 44, 45, 46, 47, 48, 49, 50, 51, 52, 53, 54, 55, 56, 57, 58, 59, 60, 61, 62, 63, 0, 1, 33, 32, 1, 2, 34, 33, 2, 3, 35, 34, 3, 4, 36, 35, 4, 5, 37, 36, 5, 6, 38, 37, 6, 7, 39, 38, 7, 8, 40, 39, 8, 9, 41, 40, 9, 10, 42, 41, 10, 11, 43, 42, 11, 12, 44, 43, 12, 13, 45, 44, 13, 14, 46, 45, 14, 15, 47, 46, 15, 16, 48, 47, 16, 17, 49, 48, 17, 18, 50, 49, 18, 19, 51, 50, 19, 20, 52, 51, 20, 21, 53, 52, 21, 22, 54, 53, 22, 23, 55, 54, 23, 24, 56, 55, 24, 25, 57, 56, 25, 26, 58, 57, 26, 27, 59, 58, 27, 28, 60, 59, 28, 29, 61, 60, 29, 30, 62, 61, 30, 31, 63, 62, 31, 0, 32, 63]
            rel material:binding:physics = </cell_phone_001/physics_materials/surface>
            uniform token physics:approximation = "convexHull"
            bool physics:collisionEnabled = 1
            point3f[] points = [(-0.0157, 0.059, 0), (-0.015821053, 0.06022907, 0), (-0.01617956, 0.061410904, 0), (-0.01676174, 0.06250009, 0), (-0.017545227, 0.06345477, 0), (-0.018499907, 0.06423826, 0), (-0.019589094, 0.06482044, 0), (-0.020770932, 0.065178946, 0), (-0.022, 0.0653, 0), (-0.023229068, 0.065178946, 0), (-0.024410905, 0.06482044, 0), (-0.025500093, 0.06423826, 0), (-0.026454773, 0.06345477, 0), (-0.02723826, 0.06250009, 0), (-0.027820442, 0.061410904, 0), (-0.028178947, 0.06022907, 0), (-0.0283, 0.059, 0), (-0.028178947, 0.05777093, 0), (-0.027820442, 0.056589093, 0), (-0.02723826, 0.055499908, 0), (-0.026454773, 0.054545227, 0), (-0.025500093, 0.053761743, 0), (-0.024410905, 0.05317956, 0), (-0.023229068, 0.05282105, 0), (-0.022, 0.0527, 0), (-0.020770932, 0.05282105, 0), (-0.019589094, 0.05317956, 0), (-0.018499907, 0.053761743, 0), (-0.017545227, 0.054545227, 0), (-0.01676174, 0.055499908, 0), (-0.01617956, 0.056589093, 0), (-0.015821053, 0.05777093, 0), (-0.0157, 0.059, 0.00065), (-0.015821053, 0.06022907, 0.00065), (-0.01617956, 0.061410904, 0.00065), (-0.01676174, 0.06250009, 0.00065), (-0.017545227, 0.06345477, 0.00065), (-0.018499907, 0.06423826, 0.00065), (-0.019589094, 0.06482044, 0.00065), (-0.020770932, 0.065178946, 0.00065), (-0.022, 0.0653, 0.00065), (-0.023229068, 0.065178946, 0.00065), (-0.024410905, 0.06482044, 0.00065), (-0.025500093, 0.06423826, 0.00065), (-0.026454773, 0.06345477, 0.00065), (-0.02723826, 0.06250009, 0.00065), (-0.027820442, 0.061410904, 0.00065), (-0.028178947, 0.06022907, 0.00065), (-0.0283, 0.059, 0.00065), (-0.028178947, 0.05777093, 0.00065), (-0.027820442, 0.056589093, 0.00065), (-0.02723826, 0.055499908, 0.00065), (-0.026454773, 0.054545227, 0.00065), (-0.025500093, 0.053761743, 0.00065), (-0.024410905, 0.05317956, 0.00065), (-0.023229068, 0.05282105, 0.00065), (-0.022, 0.0527, 0.00065), (-0.020770932, 0.05282105, 0.00065), (-0.019589094, 0.05317956, 0.00065), (-0.018499907, 0.053761743, 0.00065), (-0.017545227, 0.054545227, 0.00065), (-0.01676174, 0.055499908, 0.00065), (-0.01617956, 0.056589093, 0.00065), (-0.015821053, 0.05777093, 0.00065)]
            uniform token purpose = "guide"
            uniform token subdivisionScheme = "none"
            token visibility = "invisible"
        }

        def Mesh "button_0" (
            prepend apiSchemas = ["PhysicsCollisionAPI", "PhysicsMeshCollisionAPI", "MaterialBindingAPI"]
        )
        {
            float3[] extent = [(0.0367, 0.0095, 0.0048), (0.0375, 0.0225, 0.0072)]
            int[] faceVertexCounts = [4, 4, 4, 4, 4, 4]
            int[] faceVertexIndices = [3, 2, 1, 0, 0, 1, 5, 4, 1, 2, 6, 5, 2, 3, 7, 6, 3, 0, 4, 7, 4, 5, 6, 7]
            rel material:binding:physics = </cell_phone_001/physics_materials/surface>
            uniform token physics:approximation = "convexHull"
            bool physics:collisionEnabled = 1
            point3f[] points = [(0.0367, 0.0095, 0.0048), (0.0375, 0.0095, 0.0048), (0.0375, 0.0225, 0.0048), (0.0367, 0.0225, 0.0048), (0.0367, 0.0095, 0.0072), (0.0375, 0.0095, 0.0072), (0.0375, 0.0225, 0.0072), (0.0367, 0.0225, 0.0072)]
            uniform token purpose = "guide"
            uniform token subdivisionScheme = "none"
            token visibility = "invisible"
        }

        def Mesh "button_1" (
            prepend apiSchemas = ["PhysicsCollisionAPI", "PhysicsMeshCollisionAPI", "MaterialBindingAPI"]
        )
        {
            float3[] extent = [(-0.0375, 0.0225, 0.0048), (-0.0367, 0.0355, 0.0072)]
            int[] faceVertexCounts = [4, 4, 4, 4, 4, 4]
            int[] faceVertexIndices = [3, 2, 1, 0, 0, 1, 5, 4, 1, 2, 6, 5, 2, 3, 7, 6, 3, 0, 4, 7, 4, 5, 6, 7]
            rel material:binding:physics = </cell_phone_001/physics_materials/surface>
            uniform token physics:approximation = "convexHull"
            bool physics:collisionEnabled = 1
            point3f[] points = [(-0.0375, 0.0225, 0.0048), (-0.0367, 0.0225, 0.0048), (-0.0367, 0.0355, 0.0048), (-0.0375, 0.0355, 0.0048), (-0.0375, 0.0225, 0.0072), (-0.0367, 0.0225, 0.0072), (-0.0367, 0.0355, 0.0072), (-0.0375, 0.0355, 0.0072)]
            uniform token purpose = "guide"
            uniform token subdivisionScheme = "none"
            token visibility = "invisible"
        }

        def Mesh "button_2" (
            prepend apiSchemas = ["PhysicsCollisionAPI", "PhysicsMeshCollisionAPI", "MaterialBindingAPI"]
        )
        {
            float3[] extent = [(-0.0375, 0.0025, 0.0048), (-0.0367, 0.0155, 0.0072)]
            int[] faceVertexCounts = [4, 4, 4, 4, 4, 4]
            int[] faceVertexIndices = [3, 2, 1, 0, 0, 1, 5, 4, 1, 2, 6, 5, 2, 3, 7, 6, 3, 0, 4, 7, 4, 5, 6, 7]
            rel material:binding:physics = </cell_phone_001/physics_materials/surface>
            uniform token physics:approximation = "convexHull"
            bool physics:collisionEnabled = 1
            point3f[] points = [(-0.0375, 0.0025, 0.0048), (-0.0367, 0.0025, 0.0048), (-0.0367, 0.0155, 0.0048), (-0.0375, 0.0155, 0.0048), (-0.0375, 0.0025, 0.0072), (-0.0367, 0.0025, 0.0072), (-0.0367, 0.0155, 0.0072), (-0.0375, 0.0155, 0.0072)]
            uniform token purpose = "guide"
            uniform token subdivisionScheme = "none"
            token visibility = "invisible"
        }
    }
}

